<svg id="Layer_1" data-name="Layer 1" xmlns="http://www.w3.org/2000/svg" viewBox="0 0 336.85 337.33"><defs><style>.cls-1{fill:none;stroke:#334d5e;stroke-linecap:round;stroke-linejoin:round;stroke-width:14px;}</style></defs><title>beauty</title><path class="cls-1" d="M187.47,255.63a36.4,36.4,0,0,1-15-5.67c-9.09-6-16.53-19.6-2.45-26.41,12.68-6.13,22.61-4.19,30.84,1.22a36.74,36.74,0,0,1,.46-17.56c2.93-10.53,13.55-21.78,24.36-10.5,10.29,10.73,11.12,21.29,8,31.2A36.65,36.65,0,0,1,250.28,223c10.9-.47,24.89,6.14,17.51,19.91-6.72,12.55-16.27,16.68-26.47,17a36.13,36.13,0,0,1,8.4,13c3.82,10.22,1.87,25.57-13.52,22.8-12.58-2.25-19.4-9.11-23.14-17.76a36,36,0,0,1-9.28,11.07c-8.54,6.79-23.75,9.68-25.87-5.82-1.76-12.82,2.58-21.42,9.57-27.6ZM257,158.56V110.48a7.92,7.92,0,0,0-7.88-7.89H183.27a7.91,7.91,0,0,0-7.89,7.89v48.08m-36.91,16L155.25,15.18c.46-4.42-4.4-8.18-9.76-8.18H16.79C11.42,7,6.56,10.69,7,15.18L31.26,245.55c.47,4.49,4.45,8.18,9.77,8.18m58.4-1.06H47.52c-4.67,0-8.49,3.55-8.49,7.89V300c0,4.34,3.83,7.89,8.49,7.89h71.73M187,161.67c-52.34,0-84.45,37.67-84.45,84.33s32.1,84.33,84.45,84.33H245.4c52.34,0,84.45-37.68,84.45-84.33s-32.11-84.33-84.45-84.33Z"/></svg>