<svg id="Layer_1" data-name="Layer 1" xmlns="http://www.w3.org/2000/svg" viewBox="0 0 315.24 361.07"><defs><style>.cls-1{fill:none;stroke:#324c5e;stroke-linecap:round;stroke-linejoin:round;stroke-width:10px;}</style></defs><title>client</title><path class="cls-1" d="M105.37,179.67v12.12m97.22-12.12v12.12m5.66,68.81c0,19.56-26.58,37.41-50.75,37.41s-50.75-17.86-50.75-37.41m0,0c8.17,3.8,29.93,11.37,49.12,11.67,21,.33,44-7.79,52.38-11.67m73.13-116.34c3.46-2,13.11-3.43,20.14-2.22,9.38,1.61,13.4,81.82-18.66,76.3-5.92-1-3.08-.79-4.45-1.53-2.18,18.31-5.76,64.49-11.5,75.88-12.25,24.29-73.47,61.37-107.22,61.37S64.73,317,52.47,292.7c-5.74-11.38-9.32-57.56-11.5-75.87-1.37.73,1.47.51-4.45,1.53-32.07,5.52-28-74.69-18.65-76.3,7-1.21,16.67.21,20.13,2.22m240.3,20.9c-2.89-.46-6-73.62-47.07-82.38-68.78,81.6-186.23-32.1-192,72.93m239.1,9.45c-4.89-5.26,9.43-42.4,14.86-50.91,24-37.63-13.5-84.61-47.67-54.65C260.12,22.33,188.28,9.9,146.84,7.39,100.48,4.58,53.6,17.23,28.34,40.12c-32.62,29.56-23.71,52.37-.84,82.36,5.41,7.1,13.73,41.33,14,41.57"/></svg>