<svg id="Layer_1" data-name="Layer 1" xmlns="http://www.w3.org/2000/svg" viewBox="0 0 335.19 342.19"><defs><style>.cls-1{fill:none;stroke:#324c5e;stroke-linecap:round;stroke-linejoin:round;stroke-width:14px;}</style></defs><title>cup1</title><path class="cls-1" d="M64.22,7H271V166.45c0,50.4-46.58,91.74-103.37,91.74h0c-56.79,0-103.38-41.28-103.38-91.74V7ZM167.59,258.32v72m-94.38,4.85H262M61.81,32.73H7c14.08,38,26.64,62.75,54.81,77m211.57-77h54.81c-14.08,38-26.64,62.75-54.81,77M167.59,48.14,186.87,93.8l47.82,3.08-37.47,32.45,11.84,46.43-42.43-25.61-40.5,25.61,11.25-48.27L100.49,96.88l49.38-4.22,17.71-44.53Z"/></svg>