<svg id="Layer_1" data-name="Layer 1" xmlns="http://www.w3.org/2000/svg" viewBox="0 0 346.58 346.59"><defs><style>.cls-1{fill:none;stroke:#324c5e;stroke-linecap:round;stroke-linejoin:round;stroke-width:10px;}</style></defs><title>dashboard</title><path class="cls-1" d="M185.46,156.34a20.87,20.87,0,1,1-29.12,4.78,20.87,20.87,0,0,1,29.12-4.78Zm122.24,17-112.6,0M173.29,7A166.29,166.29,0,1,0,339.58,173.29,166.29,166.29,0,0,0,173.29,7ZM152,173.29l-39.74,0M296.92,144.9A126.83,126.83,0,1,0,79.57,258.72M260.79,146.16A91.62,91.62,0,0,0,94.41,126.73M222.33,145.5a56.35,56.35,0,0,0-49-28.57M135.23,273.12a7.63,7.63,0,0,0-7.61,7.61v12.43a7.63,7.63,0,0,0,7.61,7.61h76.12a7.63,7.63,0,0,0,7.61-7.61V280.73a7.63,7.63,0,0,0-7.61-7.61ZM307.7,173.31l-10.13,0m6.14,32.56-9.82-2.49M292,236.41,283,231.62m-9.87,31.63-7.5-6.81"/></svg>