<svg id="Layer_1" data-name="Layer 1" xmlns="http://www.w3.org/2000/svg" viewBox="0 0 347.06 347.44"><defs><style>.cls-1{fill:none;stroke:#324c5e;stroke-linecap:round;stroke-linejoin:round;stroke-width:10px;}</style></defs><title>experience</title><path class="cls-1" d="M263.06,318.07H84v-56H263.06v56Zm-.06.85v23.52h79.06l-30.21-29,30.21-31.74H265.45M173.53,98.36,156.15,142l-48.45,4.14,36.17,30-11,47.36,39.73-25.13,41.63,25.13L202.6,178l36.76-31.83-46.92-3-18.91-44.8Zm73.55,141.27a105,105,0,1,0-147.11,0M81.61,281.72H5l30.21,31.74L5,342.44H84.06V318.92M173.53,5V34.26M107.32,51.74,92.69,26.4m-59.32,59L58.71,100M11.48,166.07H40.74m-7.86,80.85,25.34-14.63m196-205.39L239.62,52.23m48.25,48.61L313.2,86.21m21.4,80.85H305.34m7.37,80.71-25.34-14.63"/></svg>