<svg id="Layer_1" data-name="Layer 1" xmlns="http://www.w3.org/2000/svg" viewBox="0 0 355.71 305.91"><defs><style>.cls-1{fill:none;stroke:#324c5e;stroke-linecap:round;stroke-linejoin:round;stroke-width:14px;}</style></defs><title>first_aids</title><path class="cls-1" d="M18.47,59.26H347.63a1.08,1.08,0,0,1,1.08,1.08v237.5a1.08,1.08,0,0,1-1.08,1.08H8.08A1.08,1.08,0,0,1,7,297.83V70.72A11.5,11.5,0,0,1,18.47,59.26Zm91.89,133.06a10.42,10.42,0,0,0,10.39,10.39h33.5v43.88h47.23V202.7h43.88V155.47H201.47V111.58H154.24v43.88H110.35v36.85ZM229.65,58.63V25.77A18.93,18.93,0,0,0,210.88,7H134.43a8.41,8.41,0,0,0-8.38,8.38V58.63"/></svg>