<svg xmlns="http://www.w3.org/2000/svg" width="22" height="16" viewBox="0 0 22 16">
  <metadata><?xpacket begin="﻿" id="W5M0MpCehiHzreSzNTczkc9d"?>
<x:xmpmeta xmlns:x="adobe:ns:meta/" x:xmptk="Adobe XMP Core 5.6-c138 79.159824, 2016/09/14-01:09:01        ">
   <rdf:RDF xmlns:rdf="http://www.w3.org/1999/02/22-rdf-syntax-ns#">
      <rdf:Description rdf:about=""/>
   </rdf:RDF>
</x:xmpmeta>
                                                                                                    
                                                                                                    
                                                                                                    
                                                                                                    
                                                                                                    
                                                                                                    
                                                                                                    
                                                                                                    
                                                                                                    
                                                                                                    
                                                                                                    
                                                                                                    
                                                                                                    
                                                                                                    
                                                                                                    
                                                                                                    
                                                                                                    
                                                                                                    
                                                                                                    
                                                                                                    
                           
<?xpacket end="w"?></metadata>
<defs>
    <style>
      .cls-1 {
        fill: #8b9599;
        fill-rule: evenodd;
      }
    </style>
  </defs>
  <path id="Ellipse_819_copy_61" data-name="Ellipse 819 copy 61" class="cls-1" d="M2,0A2,2,0,1,1,0,2,2,2,0,0,1,2,0ZM8,0A2,2,0,1,1,6,2,2,2,0,0,1,8,0Zm6,0a2,2,0,1,1-2,2A2,2,0,0,1,14,0Zm6,0a2,2,0,1,1-2,2A2,2,0,0,1,20,0ZM2,6A2,2,0,1,1,0,8,2,2,0,0,1,2,6ZM8,6A2,2,0,1,1,6,8,2,2,0,0,1,8,6Zm6,0a2,2,0,1,1-2,2A2,2,0,0,1,14,6Zm6,0a2,2,0,1,1-2,2A2,2,0,0,1,20,6ZM2,12a2,2,0,1,1-2,2A2,2,0,0,1,2,12Zm6,0a2,2,0,1,1-2,2A2,2,0,0,1,8,12Zm6,0a2,2,0,1,1-2,2A2,2,0,0,1,14,12Zm6,0a2,2,0,1,1-2,2A2,2,0,0,1,20,12Z"/>
</svg>
