<svg xmlns="http://www.w3.org/2000/svg" width="23" height="18" viewBox="0 0 23 18">
  <metadata><?xpacket begin="﻿" id="W5M0MpCehiHzreSzNTczkc9d"?>
<x:xmpmeta xmlns:x="adobe:ns:meta/" x:xmptk="Adobe XMP Core 5.6-c138 79.159824, 2016/09/14-01:09:01        ">
   <rdf:RDF xmlns:rdf="http://www.w3.org/1999/02/22-rdf-syntax-ns#">
      <rdf:Description rdf:about=""/>
   </rdf:RDF>
</x:xmpmeta>
                                                                                                    
                                                                                                    
                                                                                                    
                                                                                                    
                                                                                                    
                                                                                                    
                                                                                                    
                                                                                                    
                                                                                                    
                                                                                                    
                                                                                                    
                                                                                                    
                                                                                                    
                                                                                                    
                                                                                                    
                                                                                                    
                                                                                                    
                                                                                                    
                                                                                                    
                                                                                                    
                           
<?xpacket end="w"?></metadata>
<defs>
    <style>
      .cls-1 {
        fill: #8b9599;
        fill-rule: evenodd;
      }
    </style>
  </defs>
  <path id="Ellipse_819_copy_65" data-name="Ellipse 819 copy 65" class="cls-1" d="M1.5,0A1.5,1.5,0,1,1,0,1.5,1.5,1.5,0,0,1,1.5,0Zm0,5A1.5,1.5,0,1,1,0,6.5,1.5,1.5,0,0,1,1.5,5Zm0,5A1.5,1.5,0,1,1,0,11.5,1.5,1.5,0,0,1,1.5,10Zm0,5A1.5,1.5,0,1,1,0,16.5,1.5,1.5,0,0,1,1.5,15Zm5-15A1.5,1.5,0,1,1,5,1.5,1.5,1.5,0,0,1,6.5,0Zm0,5A1.5,1.5,0,1,1,5,6.5,1.5,1.5,0,0,1,6.5,5Zm0,5A1.5,1.5,0,1,1,5,11.5,1.5,1.5,0,0,1,6.5,10Zm0,5A1.5,1.5,0,1,1,5,16.5,1.5,1.5,0,0,1,6.5,15Zm5-15A1.5,1.5,0,1,1,10,1.5,1.5,1.5,0,0,1,11.5,0Zm0,5A1.5,1.5,0,1,1,10,6.5,1.5,1.5,0,0,1,11.5,5Zm0,5A1.5,1.5,0,1,1,10,11.5,1.5,1.5,0,0,1,11.5,10Zm0,5A1.5,1.5,0,1,1,10,16.5,1.5,1.5,0,0,1,11.5,15Zm5-15A1.5,1.5,0,1,1,15,1.5,1.5,1.5,0,0,1,16.5,0Zm0,5A1.5,1.5,0,1,1,15,6.5,1.5,1.5,0,0,1,16.5,5Zm0,5A1.5,1.5,0,1,1,15,11.5,1.5,1.5,0,0,1,16.5,10Zm0,5A1.5,1.5,0,1,1,15,16.5,1.5,1.5,0,0,1,16.5,15Zm5-15A1.5,1.5,0,1,1,20,1.5,1.5,1.5,0,0,1,21.5,0Zm0,5A1.5,1.5,0,1,1,20,6.5,1.5,1.5,0,0,1,21.5,5Zm0,5A1.5,1.5,0,1,1,20,11.5,1.5,1.5,0,0,1,21.5,10Zm0,5A1.5,1.5,0,1,1,20,16.5,1.5,1.5,0,0,1,21.5,15Z"/>
</svg>
