<svg xmlns="http://www.w3.org/2000/svg" width="22" height="18" viewBox="0 0 22 18">
  <metadata><?xpacket begin="﻿" id="W5M0MpCehiHzreSzNTczkc9d"?>
<x:xmpmeta xmlns:x="adobe:ns:meta/" x:xmptk="Adobe XMP Core 5.6-c138 79.159824, 2016/09/14-01:09:01        ">
   <rdf:RDF xmlns:rdf="http://www.w3.org/1999/02/22-rdf-syntax-ns#">
      <rdf:Description rdf:about=""/>
   </rdf:RDF>
</x:xmpmeta>
                                                                                                    
                                                                                                    
                                                                                                    
                                                                                                    
                                                                                                    
                                                                                                    
                                                                                                    
                                                                                                    
                                                                                                    
                                                                                                    
                                                                                                    
                                                                                                    
                                                                                                    
                                                                                                    
                                                                                                    
                                                                                                    
                                                                                                    
                                                                                                    
                                                                                                    
                                                                                                    
                           
<?xpacket end="w"?></metadata>
<defs>
    <style>
      .cls-1 {
        fill: #8b9599;
        fill-rule: evenodd;
      }
    </style>
  </defs>
  <path id="Ellipse_819_copy_70" data-name="Ellipse 819 copy 70" class="cls-1" d="M1,0A1,1,0,1,1,0,1,1,1,0,0,1,1,0ZM5,0A1,1,0,1,1,4,1,1,1,0,0,1,5,0ZM9,0A1,1,0,1,1,8,1,1,1,0,0,1,9,0Zm4,0a1,1,0,1,1-1,1A1,1,0,0,1,13,0Zm4,0a1,1,0,1,1-1,1A1,1,0,0,1,17,0Zm4,0a1,1,0,1,1-1,1A1,1,0,0,1,21,0ZM1,4A1,1,0,1,1,0,5,1,1,0,0,1,1,4ZM5,4A1,1,0,1,1,4,5,1,1,0,0,1,5,4ZM9,4A1,1,0,1,1,8,5,1,1,0,0,1,9,4Zm4,0a1,1,0,1,1-1,1A1,1,0,0,1,13,4Zm4,0a1,1,0,1,1-1,1A1,1,0,0,1,17,4Zm4,0a1,1,0,1,1-1,1A1,1,0,0,1,21,4ZM1,8A1,1,0,1,1,0,9,1,1,0,0,1,1,8ZM5,8A1,1,0,1,1,4,9,1,1,0,0,1,5,8ZM9,8A1,1,0,1,1,8,9,1,1,0,0,1,9,8Zm4,0a1,1,0,1,1-1,1A1,1,0,0,1,13,8Zm4,0a1,1,0,1,1-1,1A1,1,0,0,1,17,8Zm4,0a1,1,0,1,1-1,1A1,1,0,0,1,21,8ZM1,12a1,1,0,1,1-1,1A1,1,0,0,1,1,12Zm4,0a1,1,0,1,1-1,1A1,1,0,0,1,5,12Zm4,0a1,1,0,1,1-1,1A1,1,0,0,1,9,12Zm4,0a1,1,0,1,1-1,1A1,1,0,0,1,13,12Zm4,0a1,1,0,1,1-1,1A1,1,0,0,1,17,12Zm4,0a1,1,0,1,1-1,1A1,1,0,0,1,21,12ZM1,16a1,1,0,1,1-1,1A1,1,0,0,1,1,16Zm4,0a1,1,0,1,1-1,1A1,1,0,0,1,5,16Zm4,0a1,1,0,1,1-1,1A1,1,0,0,1,9,16Zm4,0a1,1,0,1,1-1,1A1,1,0,0,1,13,16Zm4,0a1,1,0,1,1-1,1A1,1,0,0,1,17,16Zm4,0a1,1,0,1,1-1,1A1,1,0,0,1,21,16Z"/>
</svg>
