<svg xmlns="http://www.w3.org/2000/svg" width="19" height="19" viewBox="0 0 19 19">
  <metadata><?xpacket begin="﻿" id="W5M0MpCehiHzreSzNTczkc9d"?>
<x:xmpmeta xmlns:x="adobe:ns:meta/" x:xmptk="Adobe XMP Core 5.6-c138 79.159824, 2016/09/14-01:09:01        ">
   <rdf:RDF xmlns:rdf="http://www.w3.org/1999/02/22-rdf-syntax-ns#">
      <rdf:Description rdf:about=""/>
   </rdf:RDF>
</x:xmpmeta>
                                                                                                    
                                                                                                    
                                                                                                    
                                                                                                    
                                                                                                    
                                                                                                    
                                                                                                    
                                                                                                    
                                                                                                    
                                                                                                    
                                                                                                    
                                                                                                    
                                                                                                    
                                                                                                    
                                                                                                    
                                                                                                    
                                                                                                    
                                                                                                    
                                                                                                    
                                                                                                    
                           
<?xpacket end="w"?></metadata>
<defs>
    <style>
      .cls-1 {
        fill: #8b9599;
        fill-rule: evenodd;
      }
    </style>
  </defs>
  <path id="Ellipse_819_copy_13" data-name="Ellipse 819 copy 13" class="cls-1" d="M2.5,0A2.5,2.5,0,1,1,0,2.5,2.5,2.5,0,0,1,2.5,0Zm0,7A2.5,2.5,0,1,1,0,9.5,2.5,2.5,0,0,1,2.5,7Zm0,7A2.5,2.5,0,1,1,0,16.5,2.5,2.5,0,0,1,2.5,14Zm7-14A2.5,2.5,0,1,1,7,2.5,2.5,2.5,0,0,1,9.5,0Zm0,7A2.5,2.5,0,1,1,7,9.5,2.5,2.5,0,0,1,9.5,7Zm0,7A2.5,2.5,0,1,1,7,16.5,2.5,2.5,0,0,1,9.5,14Zm7-14A2.5,2.5,0,1,1,14,2.5,2.5,2.5,0,0,1,16.5,0Zm0,7A2.5,2.5,0,1,1,14,9.5,2.5,2.5,0,0,1,16.5,7Zm0,7A2.5,2.5,0,1,1,14,16.5,2.5,2.5,0,0,1,16.5,14Z"/>
</svg>
