<svg id="Layer_1" data-name="Layer 1" xmlns="http://www.w3.org/2000/svg" viewBox="0 0 312.72 361.29"><defs><style>.cls-1{fill:none;stroke:#2f4a5b;stroke-linecap:round;stroke-linejoin:round;stroke-width:14px;}</style></defs><title>home_pet</title><path class="cls-1" d="M147.86,33.52A100.22,100.22,0,0,1,183,27.12a97.29,97.29,0,0,1,33.21,5.69L254,7c10.81,7.77,13.9,31.05,14.29,58.84,0,2.33.05,4.64.06,6.92a80.47,80.47,0,0,1,7.36,33.65c0,47.51-41.51,86-92.72,86s-92.72-38.52-92.72-86A80.31,80.31,0,0,1,95.2,78.69q0-6.29.06-12.84c.22-15.72.82-49.16,14.29-58.84l38.31,26.52Zm8.89,60.88a6.83,6.83,0,1,0,6.83,6.83,6.83,6.83,0,0,0-6.83-6.83Zm52.5,0a6.83,6.83,0,1,0,6.83,6.83,6.83,6.83,0,0,0-6.83-6.83Zm-25.86,47.8,9.24-15.85H173.37l10,15.85m53.9-14.82,68.43-11.22m-68.43,27.73,61.25-2.07M60.28,116.15l68.43,11.22m0,16.51-61.25-2.07m89.2,2.07A13.23,13.23,0,0,0,183,145.71a13.23,13.23,0,0,0,26.34-1.83m8.44,129.6H234.9c27.63,0,47.58,18.18,47.58,40.41h0c0,22.23-20,40.41-47.58,40.41H61.29c-19.65,0-36.49-10.44-44.75-24-19.67-32.25-8.46-85,29.32-100.76,45.52-19,73.67-12,82-52.94m93.2,8.23c.64.42,1.65,3.11,1.76,3.25,19.88,24.44,7.3,41-3.53,68.4-6.35,16.05-10.58,28.2-.22,50.89"/></svg>