<svg id="Layer_1" data-name="Layer 1" xmlns="http://www.w3.org/2000/svg" viewBox="0 0 322.78 332.61"><defs><style>.cls-1{fill:none;stroke:#324c5e;stroke-linecap:round;stroke-linejoin:round;stroke-width:14px;}</style></defs><title>like</title><path class="cls-1" d="M253.26,323.32,171,325.58c-31.27.86-73.46-13.68-97.7-35.1-3.91-3.45-43-9.07-66.29-9.37l.18-126.75c36.17-19.39,119.34-21,171.37-94.27L196,13c4.88-13.14,30.79-2.44,35.77,10.65s5.24,41.65-1.6,54L204,125m98.88,21.52v3.7a22.83,22.83,0,0,1-22.75,22.74H215.82a22.85,22.85,0,0,1-22.74-22.74v-3.7a22.83,22.83,0,0,1,22.74-22.75h64.29a22.81,22.81,0,0,1,22.75,22.75Zm12.93,51.23v3.7A22.84,22.84,0,0,1,293,224.14H216.75A22.86,22.86,0,0,1,194,201.39v-3.7A22.84,22.84,0,0,1,216.75,175H293a22.81,22.81,0,0,1,22.75,22.74Zm-20.05,51.23v3.7A22.83,22.83,0,0,1,273,275.37h-52.3a22.84,22.84,0,0,1-22.74-22.75v-3.7a22.82,22.82,0,0,1,22.74-22.74H273a22.81,22.81,0,0,1,22.74,22.74Zm-19.24,48.77v3.7a22.84,22.84,0,0,1-22.74,22.74H213.44a22.86,22.86,0,0,1-22.74-22.74v-3.7a22.84,22.84,0,0,1,22.74-22.75h40.31a22.81,22.81,0,0,1,22.74,22.75ZM195.31,139c-9,40.75-28.28,64.3-58.64,70.33"/></svg>