<svg xmlns="http://www.w3.org/2000/svg" width="20" height="18" viewBox="0 0 20 18">
  <metadata><?xpacket begin="﻿" id="W5M0MpCehiHzreSzNTczkc9d"?>
<x:xmpmeta xmlns:x="adobe:ns:meta/" x:xmptk="Adobe XMP Core 5.6-c138 79.159824, 2016/09/14-01:09:01        ">
   <rdf:RDF xmlns:rdf="http://www.w3.org/1999/02/22-rdf-syntax-ns#">
      <rdf:Description rdf:about=""/>
   </rdf:RDF>
</x:xmpmeta>
                                                                                                    
                                                                                                    
                                                                                                    
                                                                                                    
                                                                                                    
                                                                                                    
                                                                                                    
                                                                                                    
                                                                                                    
                                                                                                    
                                                                                                    
                                                                                                    
                                                                                                    
                                                                                                    
                                                                                                    
                                                                                                    
                                                                                                    
                                                                                                    
                                                                                                    
                                                                                                    
                           
<?xpacket end="w"?></metadata>
<defs>
    <style>
      .cls-1 {
        fill: #8b9599;
        fill-rule: evenodd;
      }
    </style>
  </defs>
  <path id="Rounded_Rectangle_857_copy_2" data-name="Rounded Rectangle 857 copy 2" class="cls-1" d="M8,0H18a2,2,0,0,1,2,2h0a2,2,0,0,1-2,2H8A2,2,0,0,1,6,2H6A2,2,0,0,1,8,0ZM2,0A2,2,0,1,1,0,2,2,2,0,0,1,2,0ZM2,7A2,2,0,1,1,0,9,2,2,0,0,1,2,7Zm0,7a2,2,0,1,1-2,2A2,2,0,0,1,2,14ZM8,7H18a2,2,0,0,1,2,2h0a2,2,0,0,1-2,2H8A2,2,0,0,1,6,9H6A2,2,0,0,1,8,7Zm0,7H18a2,2,0,0,1,2,2h0a2,2,0,0,1-2,2H8a2,2,0,0,1-2-2H6A2,2,0,0,1,8,14Z"/>
</svg>
