<svg id="Layer_1" data-name="Layer 1" xmlns="http://www.w3.org/2000/svg" viewBox="0 0 336.01 374"><defs><style>.cls-1{fill:none;stroke:#324c5e;stroke-linecap:round;stroke-linejoin:round;stroke-width:14px;}</style></defs><title>location</title><path class="cls-1" d="M289.08,150A149.19,149.19,0,1,1,156.17,68.66a289.11,289.11,0,0,1,33,2.47M7.06,217.83H305.28M50.75,114.1c22.79,20.49,61.47,34,105.35,34,18,0,48.54-5.12,63.28-11.49m42.22,185.12c-22.77-20.56-61.52-34.1-105.5-34.1s-82.55,13.48-105.35,34M155.14,71.13c-34.68,31.8-57.49,85.76-57.49,147s22.91,115.42,57.72,147.19m3.8,0C194,333.54,216.9,279.47,216.9,218.12s-22.81-115.18-57.49-147M259.07,7a70,70,0,0,0-62.58,101.2c9,18,49.55,50.31,62.58,83.33,8-34,53.57-65.34,62.58-83.33A70,70,0,0,0,259.07,7Zm0,34.51a34.65,34.65,0,1,0,34.65,34.65,34.65,34.65,0,0,0-34.65-34.65Z"/></svg>