<svg id="Layer_1" data-name="Layer 1" xmlns="http://www.w3.org/2000/svg" viewBox="0 0 356.46 334.69"><defs><style>.cls-1{fill:none;stroke:#324c5e;stroke-linecap:round;stroke-linejoin:round;stroke-width:14px;}</style></defs><title>lungs</title><path class="cls-1" d="M116.83,312.58C61.59,329.75,4.62,348,7.08,271.12c.51-16,.61-32.62,1.83-49.59C12.42,172.69,57,29.36,113,29.36c31.22,0,34.86,19.64,33.28,38.66-4.36,52.68,2.93,38.59,9.24,84.57,3.26,23.77,13.45,44.67-.92,115.47-5.28,26-13.53,37-37.81,44.51ZM195.94,181.2c-2.48,18.12-3,42.85,5.89,86.87,5.28,26,13.53,37,37.81,44.51,55.24,17.18,112.21,35.45,109.75-41.45-.51-16-.61-32.62-1.83-49.59C344,172.69,299.5,29.36,243.43,29.36,212.21,29.36,208.57,49,210.15,68c1.28,15.4,1.55,25.1,1.15,32.25m0,0c-.33,25.29-36.72,50.09-12.37,85.37,16.14,23.37,42.82,46.71,37.76,69.08-3.21,14.16-8.61,21.24-19.6,31.36M149.19,99.29,178.08,78.9V7m0,72.27,31.18,23.17"/></svg>