<svg id="Layer_1" data-name="Layer 1" xmlns="http://www.w3.org/2000/svg" viewBox="0 0 305.61 373.35"><defs><style>.cls-1{fill:none;stroke:#324c5e;stroke-linecap:round;stroke-linejoin:round;stroke-width:14px;}</style></defs><title>medal2</title><path class="cls-1" d="M152.45,189.6l20.1,47.63,49.89,3.22-39.09,33.84,12.35,48.44L151.44,296l-42.25,26.72,11.73-50.35L82.46,240.44,134,236l18.48-46.45Zm0-31.95A104.35,104.35,0,0,1,256.79,263.48c-.78,56.2-46.65,102.07-102.85,102.85a104.35,104.35,0,1,1-1.49-208.69ZM99.18,169.33l-65-53.66V7H270.67V115.67l-65,53.66m-106-161V165.89M205.22,7.22V164.74M7,7H298.61"/></svg>