<svg id="Layer_1" data-name="Layer 1" xmlns="http://www.w3.org/2000/svg" viewBox="0 0 287.42 373.99"><defs><style>.cls-1{fill:none;stroke:#324c5e;stroke-linecap:round;stroke-linejoin:round;stroke-width:14px;}</style></defs><title>medal1</title><path class="cls-1" d="M145.11,295.36l-32.41,71L70.23,320.69,8.48,331.94,39.11,235m99.59,45.32L175.64,367l39.89-50,63.58,13.4-33.7-95.21m-101.69-190a98.56,98.56,0,1,0,98.56,98.56,98.56,98.56,0,0,0-98.56-98.56Zm-4,26.49a77.13,77.13,0,0,1,77.13,77.13M143.71,7A136.71,136.71,0,1,0,280.42,143.71,136.71,136.71,0,0,0,143.71,7Z"/></svg>