<svg id="Layer_1" data-name="Layer 1" xmlns="http://www.w3.org/2000/svg" viewBox="0 0 351.87 356.94"><defs><style>.cls-1{fill:none;stroke:#324c5e;stroke-linecap:round;stroke-linejoin:round;stroke-width:14px;}</style></defs><title>medicines</title><path class="cls-1" d="M47.44,7H170.9a14.69,14.69,0,0,1,14.65,14.65V72.91A14.69,14.69,0,0,1,170.9,87.56H47.44A14.69,14.69,0,0,1,32.79,72.91V21.65A14.69,14.69,0,0,1,47.44,7Zm163.9,278V154.45c0-24.08-41-25.37-41-53.51V93.39M48,93.39v7.55c0,28.15-41,29.37-41,53.51v149c0,11.39,9.63,20.71,21.35,20.71H178.21M7,174.19V276.73H133.24V174.19ZM293.52,193A28.16,28.16,0,0,0,254,196.55h0c-8.18,13.29-5.06,32.33,6.92,42.33L297,268.95a28.17,28.17,0,0,0,39.54-3.59h0c11.49-10.53,11.09-27.31-.88-37.29L293.52,193ZM275.3,254.87,315.18,207M257.92,346.88A28.16,28.16,0,0,0,286,318.8h0a28.16,28.16,0,0,0-28.08-28.08H206.61a28.16,28.16,0,0,0-28.08,28.08h0a28.16,28.16,0,0,0,28.08,28.08Zm-25.65,3.06V287.66"/></svg>