<svg id="Layer_1" data-name="Layer 1" xmlns="http://www.w3.org/2000/svg" viewBox="0 0 314.81 340.63"><defs><style>.cls-1{fill:none;stroke:#2f4a5b;stroke-linecap:round;stroke-linejoin:round;stroke-width:14px;}</style></defs><title>mum_baby</title><path class="cls-1" d="M50.61,12A35.11,35.11,0,0,1,83.29,34.27C102.44,17.4,128.58,7,157.41,7s55,10.4,74.12,27.27A35.1,35.1,0,1,1,264.2,82.21c-1,0-2.07,0-3.09-.14a87.9,87.9,0,0,1,2.59,21.2c0,53.17-47.59,96.27-106.3,96.27s-106.3-43.1-106.3-96.27a87.78,87.78,0,0,1,2.59-21.2c-1,.09-2,.14-3.09.14a35.1,35.1,0,1,1,0-70.2ZM157.41,98.67c-30.54,0-55.29,17.29-55.29,38.61s24.75,38.61,55.29,38.61,55.29-17.28,55.29-38.61-24.76-38.61-55.29-38.61Zm-36.83-6.3a6.83,6.83,0,1,0,6.83,6.83,6.83,6.83,0,0,0-6.83-6.83Zm73.66,0a6.83,6.83,0,1,0,6.83,6.83,6.83,6.83,0,0,0-6.83-6.83Zm-36.83,33.1V174m0-50.3c-9.57,0-17.33,2.52-17.33,5.64s7.76,5.64,17.33,5.64,17.33-2.52,17.33-5.64-7.76-5.64-17.33-5.64ZM297,246.59c18,16.32,13,46.77-11.16,68s-58.33,25.25-76.33,8.93-13-46.77,11.16-68S279,230.27,297,246.59Zm-279.2,0c-18,16.32-13,46.77,11.16,68s58.33,25.25,76.33,8.93,13-46.77-11.16-68-58.33-25.25-76.33-8.93Zm215.77-1.06c-.75-3-4.35-17-5.32-20a130.55,130.55,0,0,0-7.09-17.44,121.68,121.68,0,0,0-9.39-15.9M106.21,326.44c12.35,6.65,36,7.19,51.31,7.18s38.87-.62,51.08-7.19M103,192.18a121.16,121.16,0,0,0-9.39,15.9,129.52,129.52,0,0,0-7.09,17.44c-1,3-4.57,17-5.32,20M75,169.89a81.4,81.4,0,0,0-12.41,12.17c-8,9.6-13.52,20.24-16,29.66s-2,17.66,2.08,22.45m191.29-64.28a81.38,81.38,0,0,1,12.41,12.17c8,9.6,13.52,20.24,16.05,29.66s2,17.66-2.08,22.45"/></svg>