<svg id="Layer_1" data-name="Layer 1" xmlns="http://www.w3.org/2000/svg" viewBox="0 0 346 348.55"><defs><style>.cls-1{fill:none;stroke:#324c5e;stroke-linecap:round;stroke-linejoin:round;stroke-width:10px;}</style></defs><title>order</title><path class="cls-1" d="M254.2,137.31V40.78a12.23,12.23,0,0,0-12-12H188.31m-116.43,0H17a12.19,12.19,0,0,0-12,12V331.51a12.15,12.15,0,0,0,12,12H242.16a12.19,12.19,0,0,0,12-12V199.95M310.61,82.09,341,112.48,183.3,270.18c-31.44,31.44-61.83,1.05-30.39-30.39l157.7-157.7ZM277,216l59-58.8-50.46-50.46M127,295l17-17M49.1,96.72,63.25,115.2,79.47,94M49.1,144l14.16,18.47,16.22-21.2m-30.38,50,14.16,18.48,16.22-21.19m26.17-85h92.86m-92.86,47.23h92.86m-92.86,47.24h45.62M74.78,48.84V5H184.42V48.84Z"/></svg>