<svg id="Layer_1" data-name="Layer 1" xmlns="http://www.w3.org/2000/svg" viewBox="0 0 333.96 333.96"><defs><style>.cls-1{fill:none;stroke:#324c5e;stroke-linecap:round;stroke-linejoin:round;stroke-width:10px;}</style></defs><title>quality</title><path class="cls-1" d="M206,5.16c22.44,8.6,10.69,31.57,28.07,40.09,18,8.72,30-11.69,47.61,1.11C296.84,65,275.18,79,286,95.12c11.23,16.54,31.85,4.89,40.67,24.77,3.77,23.74-22,25-20.68,44.36,1.45,19.94,25.13,20.16,22.84,41.78-8.6,22.44-31.57,10.69-40.09,28.07-8.72,18,11.69,30-1.11,47.61-18.67,15.14-32.68-6.53-48.75,4.27-16.54,11.23-4.89,31.84-24.77,40.67-23.74,3.77-25-22-44.36-20.68-19.94,1.45-20.16,25.13-41.78,22.84-22.44-8.6-10.69-31.57-28.07-40.09-18-8.72-30,11.69-47.6-1.11-15.14-18.67,6.52-32.68-4.27-48.76-11.23-16.54-31.85-4.89-40.67-24.77-3.77-23.74,22-25,20.68-44.36-1.45-19.94-25.13-20.16-22.84-41.78,8.6-22.44,31.57-10.69,40.09-28.07,8.72-18-11.69-30,1.11-47.6C65,37.12,79,58.78,95.12,48,111.66,36.76,100,16.14,119.88,7.32c23.74-3.77,25,22,44.36,20.68C184.18,26.55,184.4,2.86,206,5.16ZM167,96.28a59.68,59.68,0,0,0-59.5,59.5v22.39a59.68,59.68,0,0,0,59.5,59.5h0a59.68,59.68,0,0,0,59.5-59.5V155.78A59.68,59.68,0,0,0,167,96.28Zm18.07,98.52,54.09,44.32"/></svg>