<svg id="Layer_1" data-name="Layer 1" xmlns="http://www.w3.org/2000/svg" viewBox="0 0 319.84 354"><defs><style>.cls-1{fill:none;stroke:#324c5e;stroke-linecap:round;stroke-linejoin:round;stroke-width:14px;}</style></defs><title>apple</title><path class="cls-1" d="M159.89,103.52c7.7,0,18.22-6.91,32-13.47C288,44.3,335.67,151.59,302.15,229.77c-10.79,25.14-23.32,49.75-40.24,70.84-49.54,61.78-153.51,61.71-203.82.67C40.65,280.12,28.37,255.56,17.58,230-15.67,151.3,31.73,44.27,127.87,90c13.8,6.57,24.32,13.47,32,13.47ZM203.5,312.08a100.42,100.42,0,0,0,38-28.92c14.09-17.57,24.54-38.07,33.52-59a112.67,112.67,0,0,0,8.69-51M159.89,103.52c.18-23.67-8.06-58.67-39.29-75M263,29.94A75.95,75.95,0,0,0,147.94,37.3a75.76,75.76,0,0,0,57.2,22.89A75.8,75.8,0,0,0,263,29.94Z"/></svg>