<svg id="Layer_1" data-name="Layer 1" xmlns="http://www.w3.org/2000/svg" viewBox="0 0 337 336.48"><defs><style>.cls-1{fill:none;stroke:#334d5e;stroke-linecap:round;stroke-linejoin:round;stroke-width:14px;}</style></defs><title>weight_loss</title><path class="cls-1" d="M228.29,61.62c-6,32.12-5.92,68.88,22.29,102.31,12.87,15.26,21.69,34.54,23.49,55.15a342.73,342.73,0,0,1-211.14,0c1.81-20.61,10.63-39.89,23.49-55.15,28.67-34,27.71-71.41,21.1-103.9m60.89,269.45V313.11c0-26.58,2.26-35.37-19.19-48.9C120.26,245.94,84,230.54,62.56,226c-1.46,39.61,13.88,78,22.05,103.53m167.77,0c8.17-25.53,23.51-63.92,22-103.52-21,4.48-56.2,19.29-84.68,37-22.71,14.13-21.16,22.68-21.16,50.39v16.12M7,106.74H79.17m-32,34.8,30-30a6.83,6.83,0,0,0,0-9.62l-30-30M330,106.74H257.83m32-34.8-30,30a6.82,6.82,0,0,0,0,9.62l30,30M74.22,7A48.72,48.72,0,0,0,168.5,24.3,48.72,48.72,0,0,0,262.78,7"/></svg>